<mxfile host="app.diagrams.net" modified="2022-06-17T10:16:29.988Z" agent="5.0 (Macintosh; Intel Mac OS X 10_15_7) AppleWebKit/537.36 (KHTML, like Gecko) Chrome/102.0.5005.61 Safari/537.36" etag="do8TDur0n5qB8MjwNbal" version="18.1.2" type="github">
  <diagram name="Page-1" id="9f46799a-70d6-7492-0946-bef42562c5a5">
    <mxGraphModel dx="2451" dy="923" grid="1" gridSize="10" guides="1" tooltips="1" connect="1" arrows="1" fold="1" page="1" pageScale="1" pageWidth="1100" pageHeight="850" background="none" math="0" shadow="0">
      <root>
        <mxCell id="0" />
        <mxCell id="1" parent="0" />
        <mxCell id="6iNIvZ5y2WaDhr4YdJaO-2" value="Ranks" style="swimlane;html=1;fontStyle=0;childLayout=stackLayout;horizontal=1;startSize=26;fillColor=#e0e0e0;horizontalStack=0;resizeParent=1;resizeLast=0;collapsible=1;marginBottom=0;swimlaneFillColor=#ffffff;align=center;rounded=0;shadow=0;comic=0;labelBackgroundColor=none;strokeWidth=1;fontFamily=Verdana;fontSize=14;swimlaneLine=1;" vertex="1" parent="1">
          <mxGeometry x="80" y="310" width="160" height="152" as="geometry" />
        </mxCell>
        <mxCell id="6iNIvZ5y2WaDhr4YdJaO-3" value="id" style="shape=partialRectangle;top=0;left=0;right=0;bottom=1;html=1;align=left;verticalAlign=middle;fillColor=none;spacingLeft=34;spacingRight=4;whiteSpace=wrap;overflow=hidden;rotatable=0;points=[[0,0.5],[1,0.5]];portConstraint=eastwest;dropTarget=0;fontStyle=5;" vertex="1" parent="6iNIvZ5y2WaDhr4YdJaO-2">
          <mxGeometry y="26" width="160" height="30" as="geometry" />
        </mxCell>
        <mxCell id="6iNIvZ5y2WaDhr4YdJaO-4" value="PK" style="shape=partialRectangle;top=0;left=0;bottom=0;html=1;fillColor=none;align=left;verticalAlign=middle;spacingLeft=4;spacingRight=4;whiteSpace=wrap;overflow=hidden;rotatable=0;points=[];portConstraint=eastwest;part=1;" vertex="1" connectable="0" parent="6iNIvZ5y2WaDhr4YdJaO-3">
          <mxGeometry width="30" height="30" as="geometry" />
        </mxCell>
        <mxCell id="6iNIvZ5y2WaDhr4YdJaO-5" value="graduation_albums_id" style="shape=partialRectangle;top=0;left=0;right=0;bottom=0;html=1;align=left;verticalAlign=top;fillColor=none;spacingLeft=34;spacingRight=4;whiteSpace=wrap;overflow=hidden;rotatable=0;points=[[0,0.5],[1,0.5]];portConstraint=eastwest;dropTarget=0;" vertex="1" parent="6iNIvZ5y2WaDhr4YdJaO-2">
          <mxGeometry y="56" width="160" height="26" as="geometry" />
        </mxCell>
        <mxCell id="6iNIvZ5y2WaDhr4YdJaO-6" value="FK" style="shape=partialRectangle;top=0;left=0;bottom=0;html=1;fillColor=none;align=left;verticalAlign=top;spacingLeft=4;spacingRight=4;whiteSpace=wrap;overflow=hidden;rotatable=0;points=[];portConstraint=eastwest;part=1;" vertex="1" connectable="0" parent="6iNIvZ5y2WaDhr4YdJaO-5">
          <mxGeometry width="30" height="26" as="geometry" />
        </mxCell>
        <mxCell id="6iNIvZ5y2WaDhr4YdJaO-7" value="rank_title" style="shape=partialRectangle;top=0;left=0;right=0;bottom=0;html=1;align=left;verticalAlign=top;fillColor=none;spacingLeft=34;spacingRight=4;whiteSpace=wrap;overflow=hidden;rotatable=0;points=[[0,0.5],[1,0.5]];portConstraint=eastwest;dropTarget=0;" vertex="1" parent="6iNIvZ5y2WaDhr4YdJaO-2">
          <mxGeometry y="82" width="160" height="22" as="geometry" />
        </mxCell>
        <mxCell id="6iNIvZ5y2WaDhr4YdJaO-8" value="" style="shape=partialRectangle;top=0;left=0;bottom=0;html=1;fillColor=none;align=left;verticalAlign=top;spacingLeft=4;spacingRight=4;whiteSpace=wrap;overflow=hidden;rotatable=0;points=[];portConstraint=eastwest;part=1;" vertex="1" connectable="0" parent="6iNIvZ5y2WaDhr4YdJaO-7">
          <mxGeometry width="30" height="22" as="geometry" />
        </mxCell>
        <mxCell id="6iNIvZ5y2WaDhr4YdJaO-9" value="user_id" style="shape=partialRectangle;top=0;left=0;right=0;bottom=0;html=1;align=left;verticalAlign=top;fillColor=none;spacingLeft=34;spacingRight=4;whiteSpace=wrap;overflow=hidden;rotatable=0;points=[[0,0.5],[1,0.5]];portConstraint=eastwest;dropTarget=0;" vertex="1" parent="6iNIvZ5y2WaDhr4YdJaO-2">
          <mxGeometry y="104" width="160" height="26" as="geometry" />
        </mxCell>
        <mxCell id="6iNIvZ5y2WaDhr4YdJaO-10" value="FK" style="shape=partialRectangle;top=0;left=0;bottom=0;html=1;fillColor=none;align=left;verticalAlign=top;spacingLeft=4;spacingRight=4;whiteSpace=wrap;overflow=hidden;rotatable=0;points=[];portConstraint=eastwest;part=1;" vertex="1" connectable="0" parent="6iNIvZ5y2WaDhr4YdJaO-9">
          <mxGeometry width="30" height="26" as="geometry" />
        </mxCell>
        <mxCell id="6iNIvZ5y2WaDhr4YdJaO-11" value="rank_description" style="shape=partialRectangle;top=0;left=0;right=0;bottom=0;html=1;align=left;verticalAlign=top;fillColor=none;spacingLeft=34;spacingRight=4;whiteSpace=wrap;overflow=hidden;rotatable=0;points=[[0,0.5],[1,0.5]];portConstraint=eastwest;dropTarget=0;" vertex="1" parent="6iNIvZ5y2WaDhr4YdJaO-2">
          <mxGeometry y="130" width="160" height="22" as="geometry" />
        </mxCell>
        <mxCell id="6iNIvZ5y2WaDhr4YdJaO-12" value="" style="shape=partialRectangle;top=0;left=0;bottom=0;html=1;fillColor=none;align=left;verticalAlign=top;spacingLeft=4;spacingRight=4;whiteSpace=wrap;overflow=hidden;rotatable=0;points=[];portConstraint=eastwest;part=1;" vertex="1" connectable="0" parent="6iNIvZ5y2WaDhr4YdJaO-11">
          <mxGeometry width="30" height="22" as="geometry" />
        </mxCell>
        <mxCell id="6iNIvZ5y2WaDhr4YdJaO-13" value="Graduation_albums" style="swimlane;html=1;fontStyle=0;childLayout=stackLayout;horizontal=1;startSize=26;fillColor=#e0e0e0;horizontalStack=0;resizeParent=1;resizeLast=0;collapsible=1;marginBottom=0;swimlaneFillColor=#ffffff;align=center;rounded=0;shadow=0;comic=0;labelBackgroundColor=none;strokeWidth=1;fontFamily=Verdana;fontSize=14" vertex="1" parent="1">
          <mxGeometry x="-180" y="414" width="160" height="144" as="geometry" />
        </mxCell>
        <mxCell id="6iNIvZ5y2WaDhr4YdJaO-14" value="id" style="shape=partialRectangle;top=0;left=0;right=0;bottom=1;html=1;align=left;verticalAlign=middle;fillColor=none;spacingLeft=34;spacingRight=4;whiteSpace=wrap;overflow=hidden;rotatable=0;points=[[0,0.5],[1,0.5]];portConstraint=eastwest;dropTarget=0;fontStyle=5;" vertex="1" parent="6iNIvZ5y2WaDhr4YdJaO-13">
          <mxGeometry y="26" width="160" height="30" as="geometry" />
        </mxCell>
        <mxCell id="6iNIvZ5y2WaDhr4YdJaO-15" value="PK" style="shape=partialRectangle;top=0;left=0;bottom=0;html=1;fillColor=none;align=left;verticalAlign=middle;spacingLeft=4;spacingRight=4;whiteSpace=wrap;overflow=hidden;rotatable=0;points=[];portConstraint=eastwest;part=1;" vertex="1" connectable="0" parent="6iNIvZ5y2WaDhr4YdJaO-14">
          <mxGeometry width="30" height="30" as="geometry" />
        </mxCell>
        <mxCell id="6iNIvZ5y2WaDhr4YdJaO-16" value="album_name" style="shape=partialRectangle;top=0;left=0;right=0;bottom=0;html=1;align=left;verticalAlign=top;fillColor=none;spacingLeft=34;spacingRight=4;whiteSpace=wrap;overflow=hidden;rotatable=0;points=[[0,0.5],[1,0.5]];portConstraint=eastwest;dropTarget=0;" vertex="1" parent="6iNIvZ5y2WaDhr4YdJaO-13">
          <mxGeometry y="56" width="160" height="26" as="geometry" />
        </mxCell>
        <mxCell id="6iNIvZ5y2WaDhr4YdJaO-17" value="" style="shape=partialRectangle;top=0;left=0;bottom=0;html=1;fillColor=none;align=left;verticalAlign=top;spacingLeft=4;spacingRight=4;whiteSpace=wrap;overflow=hidden;rotatable=0;points=[];portConstraint=eastwest;part=1;" vertex="1" connectable="0" parent="6iNIvZ5y2WaDhr4YdJaO-16">
          <mxGeometry width="30" height="26" as="geometry" />
        </mxCell>
        <mxCell id="6iNIvZ5y2WaDhr4YdJaO-18" value="photos" style="shape=partialRectangle;top=0;left=0;right=0;bottom=0;html=1;align=left;verticalAlign=top;fillColor=none;spacingLeft=34;spacingRight=4;whiteSpace=wrap;overflow=hidden;rotatable=0;points=[[0,0.5],[1,0.5]];portConstraint=eastwest;dropTarget=0;" vertex="1" parent="6iNIvZ5y2WaDhr4YdJaO-13">
          <mxGeometry y="82" width="160" height="26" as="geometry" />
        </mxCell>
        <mxCell id="6iNIvZ5y2WaDhr4YdJaO-19" value="" style="shape=partialRectangle;top=0;left=0;bottom=0;html=1;fillColor=none;align=left;verticalAlign=top;spacingLeft=4;spacingRight=4;whiteSpace=wrap;overflow=hidden;rotatable=0;points=[];portConstraint=eastwest;part=1;" vertex="1" connectable="0" parent="6iNIvZ5y2WaDhr4YdJaO-18">
          <mxGeometry width="30" height="26" as="geometry" />
        </mxCell>
        <mxCell id="6iNIvZ5y2WaDhr4YdJaO-20" value="title" style="shape=partialRectangle;top=0;left=0;right=0;bottom=0;html=1;align=left;verticalAlign=top;fillColor=none;spacingLeft=34;spacingRight=4;whiteSpace=wrap;overflow=hidden;rotatable=0;points=[[0,0.5],[1,0.5]];portConstraint=eastwest;dropTarget=0;" vertex="1" parent="6iNIvZ5y2WaDhr4YdJaO-13">
          <mxGeometry y="108" width="160" height="26" as="geometry" />
        </mxCell>
        <mxCell id="6iNIvZ5y2WaDhr4YdJaO-21" value="" style="shape=partialRectangle;top=0;left=0;bottom=0;html=1;fillColor=none;align=left;verticalAlign=top;spacingLeft=4;spacingRight=4;whiteSpace=wrap;overflow=hidden;rotatable=0;points=[];portConstraint=eastwest;part=1;" vertex="1" connectable="0" parent="6iNIvZ5y2WaDhr4YdJaO-20">
          <mxGeometry width="30" height="26" as="geometry" />
        </mxCell>
        <mxCell id="6iNIvZ5y2WaDhr4YdJaO-22" value="" style="shape=partialRectangle;top=0;left=0;right=0;bottom=0;html=1;align=left;verticalAlign=top;fillColor=none;spacingLeft=34;spacingRight=4;whiteSpace=wrap;overflow=hidden;rotatable=0;points=[[0,0.5],[1,0.5]];portConstraint=eastwest;dropTarget=0;" vertex="1" parent="6iNIvZ5y2WaDhr4YdJaO-13">
          <mxGeometry y="134" width="160" height="10" as="geometry" />
        </mxCell>
        <mxCell id="6iNIvZ5y2WaDhr4YdJaO-23" value="" style="shape=partialRectangle;top=0;left=0;bottom=0;html=1;fillColor=none;align=left;verticalAlign=top;spacingLeft=4;spacingRight=4;whiteSpace=wrap;overflow=hidden;rotatable=0;points=[];portConstraint=eastwest;part=1;" vertex="1" connectable="0" parent="6iNIvZ5y2WaDhr4YdJaO-22">
          <mxGeometry width="30" height="10" as="geometry" />
        </mxCell>
        <mxCell id="6iNIvZ5y2WaDhr4YdJaO-24" value="suprise_events" style="swimlane;html=1;fontStyle=0;childLayout=stackLayout;horizontal=1;startSize=26;fillColor=#e0e0e0;horizontalStack=0;resizeParent=1;resizeLast=0;collapsible=1;marginBottom=0;swimlaneFillColor=#ffffff;align=center;rounded=0;shadow=0;comic=0;labelBackgroundColor=none;strokeWidth=1;fontFamily=Verdana;fontSize=14" vertex="1" parent="1">
          <mxGeometry x="80" y="480" width="160" height="214" as="geometry" />
        </mxCell>
        <mxCell id="6iNIvZ5y2WaDhr4YdJaO-25" value="id" style="shape=partialRectangle;top=0;left=0;right=0;bottom=1;html=1;align=left;verticalAlign=middle;fillColor=none;spacingLeft=34;spacingRight=4;whiteSpace=wrap;overflow=hidden;rotatable=0;points=[[0,0.5],[1,0.5]];portConstraint=eastwest;dropTarget=0;fontStyle=5;" vertex="1" parent="6iNIvZ5y2WaDhr4YdJaO-24">
          <mxGeometry y="26" width="160" height="30" as="geometry" />
        </mxCell>
        <mxCell id="6iNIvZ5y2WaDhr4YdJaO-26" value="PK" style="shape=partialRectangle;top=0;left=0;bottom=0;html=1;fillColor=none;align=left;verticalAlign=middle;spacingLeft=4;spacingRight=4;whiteSpace=wrap;overflow=hidden;rotatable=0;points=[];portConstraint=eastwest;part=1;" vertex="1" connectable="0" parent="6iNIvZ5y2WaDhr4YdJaO-25">
          <mxGeometry width="30" height="30" as="geometry" />
        </mxCell>
        <mxCell id="6iNIvZ5y2WaDhr4YdJaO-27" value="graduation_albums_id" style="shape=partialRectangle;top=0;left=0;right=0;bottom=0;html=1;align=left;verticalAlign=top;fillColor=none;spacingLeft=34;spacingRight=4;whiteSpace=wrap;overflow=hidden;rotatable=0;points=[[0,0.5],[1,0.5]];portConstraint=eastwest;dropTarget=0;" vertex="1" parent="6iNIvZ5y2WaDhr4YdJaO-24">
          <mxGeometry y="56" width="160" height="26" as="geometry" />
        </mxCell>
        <mxCell id="6iNIvZ5y2WaDhr4YdJaO-28" value="FK" style="shape=partialRectangle;top=0;left=0;bottom=0;html=1;fillColor=none;align=left;verticalAlign=top;spacingLeft=4;spacingRight=4;whiteSpace=wrap;overflow=hidden;rotatable=0;points=[];portConstraint=eastwest;part=1;" vertex="1" connectable="0" parent="6iNIvZ5y2WaDhr4YdJaO-27">
          <mxGeometry width="30" height="26" as="geometry" />
        </mxCell>
        <mxCell id="6iNIvZ5y2WaDhr4YdJaO-29" value="user_id" style="shape=partialRectangle;top=0;left=0;right=0;bottom=0;html=1;align=left;verticalAlign=top;fillColor=none;spacingLeft=34;spacingRight=4;whiteSpace=wrap;overflow=hidden;rotatable=0;points=[[0,0.5],[1,0.5]];portConstraint=eastwest;dropTarget=0;" vertex="1" parent="6iNIvZ5y2WaDhr4YdJaO-24">
          <mxGeometry y="82" width="160" height="26" as="geometry" />
        </mxCell>
        <mxCell id="6iNIvZ5y2WaDhr4YdJaO-30" value="FK" style="shape=partialRectangle;top=0;left=0;bottom=0;html=1;fillColor=none;align=left;verticalAlign=top;spacingLeft=4;spacingRight=4;whiteSpace=wrap;overflow=hidden;rotatable=0;points=[];portConstraint=eastwest;part=1;" vertex="1" connectable="0" parent="6iNIvZ5y2WaDhr4YdJaO-29">
          <mxGeometry width="30" height="26" as="geometry" />
        </mxCell>
        <mxCell id="6iNIvZ5y2WaDhr4YdJaO-31" value="suprise_title" style="shape=partialRectangle;top=0;left=0;right=0;bottom=0;html=1;align=left;verticalAlign=top;fillColor=none;spacingLeft=34;spacingRight=4;whiteSpace=wrap;overflow=hidden;rotatable=0;points=[[0,0.5],[1,0.5]];portConstraint=eastwest;dropTarget=0;" vertex="1" parent="6iNIvZ5y2WaDhr4YdJaO-24">
          <mxGeometry y="108" width="160" height="26" as="geometry" />
        </mxCell>
        <mxCell id="6iNIvZ5y2WaDhr4YdJaO-32" value="" style="shape=partialRectangle;top=0;left=0;bottom=0;html=1;fillColor=none;align=left;verticalAlign=top;spacingLeft=4;spacingRight=4;whiteSpace=wrap;overflow=hidden;rotatable=0;points=[];portConstraint=eastwest;part=1;" vertex="1" connectable="0" parent="6iNIvZ5y2WaDhr4YdJaO-31">
          <mxGeometry width="30" height="26" as="geometry" />
        </mxCell>
        <mxCell id="6iNIvZ5y2WaDhr4YdJaO-33" value="suprise_description" style="shape=partialRectangle;top=0;left=0;right=0;bottom=0;html=1;align=left;verticalAlign=top;fillColor=none;spacingLeft=34;spacingRight=4;whiteSpace=wrap;overflow=hidden;rotatable=0;points=[[0,0.5],[1,0.5]];portConstraint=eastwest;dropTarget=0;" vertex="1" parent="6iNIvZ5y2WaDhr4YdJaO-24">
          <mxGeometry y="134" width="160" height="26" as="geometry" />
        </mxCell>
        <mxCell id="6iNIvZ5y2WaDhr4YdJaO-34" value="" style="shape=partialRectangle;top=0;left=0;bottom=0;html=1;fillColor=none;align=left;verticalAlign=top;spacingLeft=4;spacingRight=4;whiteSpace=wrap;overflow=hidden;rotatable=0;points=[];portConstraint=eastwest;part=1;" vertex="1" connectable="0" parent="6iNIvZ5y2WaDhr4YdJaO-33">
          <mxGeometry width="30" height="26" as="geometry" />
        </mxCell>
        <mxCell id="6iNIvZ5y2WaDhr4YdJaO-35" value="suprise_message" style="shape=partialRectangle;top=0;left=0;right=0;bottom=0;html=1;align=left;verticalAlign=top;fillColor=none;spacingLeft=34;spacingRight=4;whiteSpace=wrap;overflow=hidden;rotatable=0;points=[[0,0.5],[1,0.5]];portConstraint=eastwest;dropTarget=0;" vertex="1" parent="6iNIvZ5y2WaDhr4YdJaO-24">
          <mxGeometry y="160" width="160" height="26" as="geometry" />
        </mxCell>
        <mxCell id="6iNIvZ5y2WaDhr4YdJaO-36" value="" style="shape=partialRectangle;top=0;left=0;bottom=0;html=1;fillColor=none;align=left;verticalAlign=top;spacingLeft=4;spacingRight=4;whiteSpace=wrap;overflow=hidden;rotatable=0;points=[];portConstraint=eastwest;part=1;" vertex="1" connectable="0" parent="6iNIvZ5y2WaDhr4YdJaO-35">
          <mxGeometry width="30" height="26" as="geometry" />
        </mxCell>
        <mxCell id="6iNIvZ5y2WaDhr4YdJaO-37" value="suprise_photo" style="shape=partialRectangle;top=0;left=0;right=0;bottom=0;html=1;align=left;verticalAlign=top;fillColor=none;spacingLeft=34;spacingRight=4;whiteSpace=wrap;overflow=hidden;rotatable=0;points=[[0,0.5],[1,0.5]];portConstraint=eastwest;dropTarget=0;" vertex="1" parent="6iNIvZ5y2WaDhr4YdJaO-24">
          <mxGeometry y="186" width="160" height="26" as="geometry" />
        </mxCell>
        <mxCell id="6iNIvZ5y2WaDhr4YdJaO-38" value="" style="shape=partialRectangle;top=0;left=0;bottom=0;html=1;fillColor=none;align=left;verticalAlign=top;spacingLeft=4;spacingRight=4;whiteSpace=wrap;overflow=hidden;rotatable=0;points=[];portConstraint=eastwest;part=1;" vertex="1" connectable="0" parent="6iNIvZ5y2WaDhr4YdJaO-37">
          <mxGeometry width="30" height="26" as="geometry" />
        </mxCell>
        <mxCell id="6iNIvZ5y2WaDhr4YdJaO-39" value="&lt;p style=&quot;margin: 0px; font-variant-numeric: normal; font-variant-east-asian: normal; font-stretch: normal; line-height: normal; font-family: &amp;quot;Hiragino Kaku Gothic ProN&amp;quot;; font-size: 15px;&quot; class=&quot;p1&quot;&gt;Users&lt;/p&gt;" style="swimlane;html=1;fontStyle=0;childLayout=stackLayout;horizontal=1;startSize=26;fillColor=#e0e0e0;horizontalStack=0;resizeParent=1;resizeLast=0;collapsible=1;marginBottom=0;swimlaneFillColor=#ffffff;align=center;rounded=0;shadow=0;comic=0;labelBackgroundColor=none;strokeWidth=1;fontFamily=Verdana;fontSize=14" vertex="1" parent="1">
          <mxGeometry x="80" y="100" width="160" height="144" as="geometry" />
        </mxCell>
        <mxCell id="6iNIvZ5y2WaDhr4YdJaO-40" value="id" style="shape=partialRectangle;top=0;left=0;right=0;bottom=1;html=1;align=left;verticalAlign=middle;fillColor=none;spacingLeft=34;spacingRight=4;whiteSpace=wrap;overflow=hidden;rotatable=0;points=[[0,0.5],[1,0.5]];portConstraint=eastwest;dropTarget=0;fontStyle=5;" vertex="1" parent="6iNIvZ5y2WaDhr4YdJaO-39">
          <mxGeometry y="26" width="160" height="30" as="geometry" />
        </mxCell>
        <mxCell id="6iNIvZ5y2WaDhr4YdJaO-41" value="PK" style="shape=partialRectangle;top=0;left=0;bottom=0;html=1;fillColor=none;align=left;verticalAlign=middle;spacingLeft=4;spacingRight=4;whiteSpace=wrap;overflow=hidden;rotatable=0;points=[];portConstraint=eastwest;part=1;" vertex="1" connectable="0" parent="6iNIvZ5y2WaDhr4YdJaO-40">
          <mxGeometry width="30" height="30" as="geometry" />
        </mxCell>
        <mxCell id="6iNIvZ5y2WaDhr4YdJaO-42" value="name" style="shape=partialRectangle;top=0;left=0;right=0;bottom=0;html=1;align=left;verticalAlign=top;fillColor=none;spacingLeft=34;spacingRight=4;whiteSpace=wrap;overflow=hidden;rotatable=0;points=[[0,0.5],[1,0.5]];portConstraint=eastwest;dropTarget=0;" vertex="1" parent="6iNIvZ5y2WaDhr4YdJaO-39">
          <mxGeometry y="56" width="160" height="26" as="geometry" />
        </mxCell>
        <mxCell id="6iNIvZ5y2WaDhr4YdJaO-43" value="" style="shape=partialRectangle;top=0;left=0;bottom=0;html=1;fillColor=none;align=left;verticalAlign=top;spacingLeft=4;spacingRight=4;whiteSpace=wrap;overflow=hidden;rotatable=0;points=[];portConstraint=eastwest;part=1;" vertex="1" connectable="0" parent="6iNIvZ5y2WaDhr4YdJaO-42">
          <mxGeometry width="30" height="26" as="geometry" />
        </mxCell>
        <mxCell id="6iNIvZ5y2WaDhr4YdJaO-44" value="email" style="shape=partialRectangle;top=0;left=0;right=0;bottom=0;html=1;align=left;verticalAlign=top;fillColor=none;spacingLeft=34;spacingRight=4;whiteSpace=wrap;overflow=hidden;rotatable=0;points=[[0,0.5],[1,0.5]];portConstraint=eastwest;dropTarget=0;" vertex="1" parent="6iNIvZ5y2WaDhr4YdJaO-39">
          <mxGeometry y="82" width="160" height="26" as="geometry" />
        </mxCell>
        <mxCell id="6iNIvZ5y2WaDhr4YdJaO-45" value="" style="shape=partialRectangle;top=0;left=0;bottom=0;html=1;fillColor=none;align=left;verticalAlign=top;spacingLeft=4;spacingRight=4;whiteSpace=wrap;overflow=hidden;rotatable=0;points=[];portConstraint=eastwest;part=1;" vertex="1" connectable="0" parent="6iNIvZ5y2WaDhr4YdJaO-44">
          <mxGeometry width="30" height="26" as="geometry" />
        </mxCell>
        <mxCell id="6iNIvZ5y2WaDhr4YdJaO-46" value="password" style="shape=partialRectangle;top=0;left=0;right=0;bottom=0;html=1;align=left;verticalAlign=top;fillColor=none;spacingLeft=34;spacingRight=4;whiteSpace=wrap;overflow=hidden;rotatable=0;points=[[0,0.5],[1,0.5]];portConstraint=eastwest;dropTarget=0;" vertex="1" parent="6iNIvZ5y2WaDhr4YdJaO-39">
          <mxGeometry y="108" width="160" height="26" as="geometry" />
        </mxCell>
        <mxCell id="6iNIvZ5y2WaDhr4YdJaO-47" value="" style="shape=partialRectangle;top=0;left=0;bottom=0;html=1;fillColor=none;align=left;verticalAlign=top;spacingLeft=4;spacingRight=4;whiteSpace=wrap;overflow=hidden;rotatable=0;points=[];portConstraint=eastwest;part=1;" vertex="1" connectable="0" parent="6iNIvZ5y2WaDhr4YdJaO-46">
          <mxGeometry width="30" height="26" as="geometry" />
        </mxCell>
        <mxCell id="6iNIvZ5y2WaDhr4YdJaO-48" value="" style="shape=partialRectangle;top=0;left=0;right=0;bottom=0;html=1;align=left;verticalAlign=top;fillColor=none;spacingLeft=34;spacingRight=4;whiteSpace=wrap;overflow=hidden;rotatable=0;points=[[0,0.5],[1,0.5]];portConstraint=eastwest;dropTarget=0;" vertex="1" parent="6iNIvZ5y2WaDhr4YdJaO-39">
          <mxGeometry y="134" width="160" height="10" as="geometry" />
        </mxCell>
        <mxCell id="6iNIvZ5y2WaDhr4YdJaO-49" value="" style="shape=partialRectangle;top=0;left=0;bottom=0;html=1;fillColor=none;align=left;verticalAlign=top;spacingLeft=4;spacingRight=4;whiteSpace=wrap;overflow=hidden;rotatable=0;points=[];portConstraint=eastwest;part=1;" vertex="1" connectable="0" parent="6iNIvZ5y2WaDhr4YdJaO-48">
          <mxGeometry width="30" height="10" as="geometry" />
        </mxCell>
        <mxCell id="6iNIvZ5y2WaDhr4YdJaO-50" value="Notifications" style="swimlane;html=1;fontStyle=0;childLayout=stackLayout;horizontal=1;startSize=26;fillColor=#e0e0e0;horizontalStack=0;resizeParent=1;resizeLast=0;collapsible=1;marginBottom=0;swimlaneFillColor=#ffffff;align=center;rounded=0;shadow=0;comic=0;labelBackgroundColor=none;strokeWidth=1;fontFamily=Verdana;fontSize=14" vertex="1" parent="1">
          <mxGeometry x="-360" y="638" width="160" height="264" as="geometry" />
        </mxCell>
        <mxCell id="6iNIvZ5y2WaDhr4YdJaO-51" value="id" style="shape=partialRectangle;top=0;left=0;right=0;bottom=1;html=1;align=left;verticalAlign=middle;fillColor=none;spacingLeft=34;spacingRight=4;whiteSpace=wrap;overflow=hidden;rotatable=0;points=[[0,0.5],[1,0.5]];portConstraint=eastwest;dropTarget=0;fontStyle=5;" vertex="1" parent="6iNIvZ5y2WaDhr4YdJaO-50">
          <mxGeometry y="26" width="160" height="30" as="geometry" />
        </mxCell>
        <mxCell id="6iNIvZ5y2WaDhr4YdJaO-52" value="PK" style="shape=partialRectangle;top=0;left=0;bottom=0;html=1;fillColor=none;align=left;verticalAlign=middle;spacingLeft=4;spacingRight=4;whiteSpace=wrap;overflow=hidden;rotatable=0;points=[];portConstraint=eastwest;part=1;" vertex="1" connectable="0" parent="6iNIvZ5y2WaDhr4YdJaO-51">
          <mxGeometry width="30" height="30" as="geometry" />
        </mxCell>
        <mxCell id="6iNIvZ5y2WaDhr4YdJaO-53" value="graduation_albums_id" style="shape=partialRectangle;top=0;left=0;right=0;bottom=0;html=1;align=left;verticalAlign=top;fillColor=none;spacingLeft=34;spacingRight=4;whiteSpace=wrap;overflow=hidden;rotatable=0;points=[[0,0.5],[1,0.5]];portConstraint=eastwest;dropTarget=0;" vertex="1" parent="6iNIvZ5y2WaDhr4YdJaO-50">
          <mxGeometry y="56" width="160" height="26" as="geometry" />
        </mxCell>
        <mxCell id="6iNIvZ5y2WaDhr4YdJaO-54" value="FK" style="shape=partialRectangle;top=0;left=0;bottom=0;html=1;fillColor=none;align=left;verticalAlign=top;spacingLeft=4;spacingRight=4;whiteSpace=wrap;overflow=hidden;rotatable=0;points=[];portConstraint=eastwest;part=1;" vertex="1" connectable="0" parent="6iNIvZ5y2WaDhr4YdJaO-53">
          <mxGeometry width="30" height="26" as="geometry" />
        </mxCell>
        <mxCell id="6iNIvZ5y2WaDhr4YdJaO-55" value="user_id" style="shape=partialRectangle;top=0;left=0;right=0;bottom=0;html=1;align=left;verticalAlign=top;fillColor=none;spacingLeft=34;spacingRight=4;whiteSpace=wrap;overflow=hidden;rotatable=0;points=[[0,0.5],[1,0.5]];portConstraint=eastwest;dropTarget=0;" vertex="1" parent="6iNIvZ5y2WaDhr4YdJaO-50">
          <mxGeometry y="82" width="160" height="26" as="geometry" />
        </mxCell>
        <mxCell id="6iNIvZ5y2WaDhr4YdJaO-56" value="FK" style="shape=partialRectangle;top=0;left=0;bottom=0;html=1;fillColor=none;align=left;verticalAlign=top;spacingLeft=4;spacingRight=4;whiteSpace=wrap;overflow=hidden;rotatable=0;points=[];portConstraint=eastwest;part=1;" vertex="1" connectable="0" parent="6iNIvZ5y2WaDhr4YdJaO-55">
          <mxGeometry width="30" height="26" as="geometry" />
        </mxCell>
        <mxCell id="6iNIvZ5y2WaDhr4YdJaO-57" value="event_id" style="shape=partialRectangle;top=0;left=0;right=0;bottom=0;html=1;align=left;verticalAlign=top;fillColor=none;spacingLeft=34;spacingRight=4;whiteSpace=wrap;overflow=hidden;rotatable=0;points=[[0,0.5],[1,0.5]];portConstraint=eastwest;dropTarget=0;" vertex="1" parent="6iNIvZ5y2WaDhr4YdJaO-50">
          <mxGeometry y="108" width="160" height="26" as="geometry" />
        </mxCell>
        <mxCell id="6iNIvZ5y2WaDhr4YdJaO-58" value="FK" style="shape=partialRectangle;top=0;left=0;bottom=0;html=1;fillColor=none;align=left;verticalAlign=top;spacingLeft=4;spacingRight=4;whiteSpace=wrap;overflow=hidden;rotatable=0;points=[];portConstraint=eastwest;part=1;" vertex="1" connectable="0" parent="6iNIvZ5y2WaDhr4YdJaO-57">
          <mxGeometry width="30" height="26" as="geometry" />
        </mxCell>
        <mxCell id="6iNIvZ5y2WaDhr4YdJaO-59" value="suprise_event_id" style="shape=partialRectangle;top=0;left=0;right=0;bottom=0;html=1;align=left;verticalAlign=top;fillColor=none;spacingLeft=34;spacingRight=4;whiteSpace=wrap;overflow=hidden;rotatable=0;points=[[0,0.5],[1,0.5]];portConstraint=eastwest;dropTarget=0;" vertex="1" parent="6iNIvZ5y2WaDhr4YdJaO-50">
          <mxGeometry y="134" width="160" height="26" as="geometry" />
        </mxCell>
        <mxCell id="6iNIvZ5y2WaDhr4YdJaO-60" value="FK" style="shape=partialRectangle;top=0;left=0;bottom=0;html=1;fillColor=none;align=left;verticalAlign=top;spacingLeft=4;spacingRight=4;whiteSpace=wrap;overflow=hidden;rotatable=0;points=[];portConstraint=eastwest;part=1;" vertex="1" connectable="0" parent="6iNIvZ5y2WaDhr4YdJaO-59">
          <mxGeometry width="30" height="26" as="geometry" />
        </mxCell>
        <mxCell id="6iNIvZ5y2WaDhr4YdJaO-61" value="messeage_for_menber_id" style="shape=partialRectangle;top=0;left=0;right=0;bottom=0;html=1;align=left;verticalAlign=top;fillColor=none;spacingLeft=34;spacingRight=4;whiteSpace=wrap;overflow=hidden;rotatable=0;points=[[0,0.5],[1,0.5]];portConstraint=eastwest;dropTarget=0;" vertex="1" parent="6iNIvZ5y2WaDhr4YdJaO-50">
          <mxGeometry y="160" width="160" height="26" as="geometry" />
        </mxCell>
        <mxCell id="6iNIvZ5y2WaDhr4YdJaO-62" value="FK" style="shape=partialRectangle;top=0;left=0;bottom=0;html=1;fillColor=none;align=left;verticalAlign=top;spacingLeft=4;spacingRight=4;whiteSpace=wrap;overflow=hidden;rotatable=0;points=[];portConstraint=eastwest;part=1;" vertex="1" connectable="0" parent="6iNIvZ5y2WaDhr4YdJaO-61">
          <mxGeometry width="30" height="26" as="geometry" />
        </mxCell>
        <mxCell id="6iNIvZ5y2WaDhr4YdJaO-63" value="rank_id" style="shape=partialRectangle;top=0;left=0;right=0;bottom=0;html=1;align=left;verticalAlign=top;fillColor=none;spacingLeft=34;spacingRight=4;whiteSpace=wrap;overflow=hidden;rotatable=0;points=[[0,0.5],[1,0.5]];portConstraint=eastwest;dropTarget=0;" vertex="1" parent="6iNIvZ5y2WaDhr4YdJaO-50">
          <mxGeometry y="186" width="160" height="26" as="geometry" />
        </mxCell>
        <mxCell id="6iNIvZ5y2WaDhr4YdJaO-64" value="FK" style="shape=partialRectangle;top=0;left=0;bottom=0;html=1;fillColor=none;align=left;verticalAlign=top;spacingLeft=4;spacingRight=4;whiteSpace=wrap;overflow=hidden;rotatable=0;points=[];portConstraint=eastwest;part=1;" vertex="1" connectable="0" parent="6iNIvZ5y2WaDhr4YdJaO-63">
          <mxGeometry width="30" height="26" as="geometry" />
        </mxCell>
        <mxCell id="6iNIvZ5y2WaDhr4YdJaO-65" value="action" style="shape=partialRectangle;top=0;left=0;right=0;bottom=0;html=1;align=left;verticalAlign=top;fillColor=none;spacingLeft=34;spacingRight=4;whiteSpace=wrap;overflow=hidden;rotatable=0;points=[[0,0.5],[1,0.5]];portConstraint=eastwest;dropTarget=0;" vertex="1" parent="6iNIvZ5y2WaDhr4YdJaO-50">
          <mxGeometry y="212" width="160" height="26" as="geometry" />
        </mxCell>
        <mxCell id="6iNIvZ5y2WaDhr4YdJaO-66" value="" style="shape=partialRectangle;top=0;left=0;bottom=0;html=1;fillColor=none;align=left;verticalAlign=top;spacingLeft=4;spacingRight=4;whiteSpace=wrap;overflow=hidden;rotatable=0;points=[];portConstraint=eastwest;part=1;" vertex="1" connectable="0" parent="6iNIvZ5y2WaDhr4YdJaO-65">
          <mxGeometry width="30" height="26" as="geometry" />
        </mxCell>
        <mxCell id="6iNIvZ5y2WaDhr4YdJaO-67" value="checked" style="shape=partialRectangle;top=0;left=0;right=0;bottom=0;html=1;align=left;verticalAlign=top;fillColor=none;spacingLeft=34;spacingRight=4;whiteSpace=wrap;overflow=hidden;rotatable=0;points=[[0,0.5],[1,0.5]];portConstraint=eastwest;dropTarget=0;" vertex="1" parent="6iNIvZ5y2WaDhr4YdJaO-50">
          <mxGeometry y="238" width="160" height="26" as="geometry" />
        </mxCell>
        <mxCell id="6iNIvZ5y2WaDhr4YdJaO-68" value="" style="shape=partialRectangle;top=0;left=0;bottom=0;html=1;fillColor=none;align=left;verticalAlign=top;spacingLeft=4;spacingRight=4;whiteSpace=wrap;overflow=hidden;rotatable=0;points=[];portConstraint=eastwest;part=1;" vertex="1" connectable="0" parent="6iNIvZ5y2WaDhr4YdJaO-67">
          <mxGeometry width="30" height="26" as="geometry" />
        </mxCell>
        <mxCell id="6iNIvZ5y2WaDhr4YdJaO-69" value="&lt;p style=&quot;margin: 0px; font-variant-numeric: normal; font-variant-east-asian: normal; font-stretch: normal; line-height: normal; font-family: &amp;quot;Hiragino Kaku Gothic ProN&amp;quot;; font-size: 15px;&quot; class=&quot;p1&quot;&gt;&lt;span style=&quot;font-family: Verdana; font-size: 14px;&quot;&gt;Alubum_users&lt;/span&gt;&lt;br&gt;&lt;/p&gt;" style="swimlane;html=1;fontStyle=0;childLayout=stackLayout;horizontal=1;startSize=26;fillColor=#e0e0e0;horizontalStack=0;resizeParent=1;resizeLast=0;collapsible=1;marginBottom=0;swimlaneFillColor=#ffffff;align=center;rounded=0;shadow=0;comic=0;labelBackgroundColor=none;strokeWidth=1;fontFamily=Verdana;fontSize=14" vertex="1" parent="1">
          <mxGeometry x="-180" y="220" width="160" height="118" as="geometry" />
        </mxCell>
        <mxCell id="6iNIvZ5y2WaDhr4YdJaO-70" value="id" style="shape=partialRectangle;top=0;left=0;right=0;bottom=1;html=1;align=left;verticalAlign=middle;fillColor=none;spacingLeft=34;spacingRight=4;whiteSpace=wrap;overflow=hidden;rotatable=0;points=[[0,0.5],[1,0.5]];portConstraint=eastwest;dropTarget=0;fontStyle=5;" vertex="1" parent="6iNIvZ5y2WaDhr4YdJaO-69">
          <mxGeometry y="26" width="160" height="30" as="geometry" />
        </mxCell>
        <mxCell id="6iNIvZ5y2WaDhr4YdJaO-71" value="PK" style="shape=partialRectangle;top=0;left=0;bottom=0;html=1;fillColor=none;align=left;verticalAlign=middle;spacingLeft=4;spacingRight=4;whiteSpace=wrap;overflow=hidden;rotatable=0;points=[];portConstraint=eastwest;part=1;" vertex="1" connectable="0" parent="6iNIvZ5y2WaDhr4YdJaO-70">
          <mxGeometry width="30" height="30" as="geometry" />
        </mxCell>
        <mxCell id="6iNIvZ5y2WaDhr4YdJaO-72" value="user_id" style="shape=partialRectangle;top=0;left=0;right=0;bottom=0;html=1;align=left;verticalAlign=top;fillColor=none;spacingLeft=34;spacingRight=4;whiteSpace=wrap;overflow=hidden;rotatable=0;points=[[0,0.5],[1,0.5]];portConstraint=eastwest;dropTarget=0;" vertex="1" parent="6iNIvZ5y2WaDhr4YdJaO-69">
          <mxGeometry y="56" width="160" height="26" as="geometry" />
        </mxCell>
        <mxCell id="6iNIvZ5y2WaDhr4YdJaO-73" value="FK" style="shape=partialRectangle;top=0;left=0;bottom=0;html=1;fillColor=none;align=left;verticalAlign=top;spacingLeft=4;spacingRight=4;whiteSpace=wrap;overflow=hidden;rotatable=0;points=[];portConstraint=eastwest;part=1;" vertex="1" connectable="0" parent="6iNIvZ5y2WaDhr4YdJaO-72">
          <mxGeometry width="30" height="26" as="geometry" />
        </mxCell>
        <mxCell id="6iNIvZ5y2WaDhr4YdJaO-74" value="graduation_album_id" style="shape=partialRectangle;top=0;left=0;right=0;bottom=0;html=1;align=left;verticalAlign=top;fillColor=none;spacingLeft=34;spacingRight=4;whiteSpace=wrap;overflow=hidden;rotatable=0;points=[[0,0.5],[1,0.5]];portConstraint=eastwest;dropTarget=0;" vertex="1" parent="6iNIvZ5y2WaDhr4YdJaO-69">
          <mxGeometry y="82" width="160" height="26" as="geometry" />
        </mxCell>
        <mxCell id="6iNIvZ5y2WaDhr4YdJaO-75" value="FK" style="shape=partialRectangle;top=0;left=0;bottom=0;html=1;fillColor=none;align=left;verticalAlign=top;spacingLeft=4;spacingRight=4;whiteSpace=wrap;overflow=hidden;rotatable=0;points=[];portConstraint=eastwest;part=1;" vertex="1" connectable="0" parent="6iNIvZ5y2WaDhr4YdJaO-74">
          <mxGeometry width="30" height="26" as="geometry" />
        </mxCell>
        <mxCell id="6iNIvZ5y2WaDhr4YdJaO-76" value="" style="shape=partialRectangle;top=0;left=0;right=0;bottom=0;html=1;align=left;verticalAlign=top;fillColor=none;spacingLeft=34;spacingRight=4;whiteSpace=wrap;overflow=hidden;rotatable=0;points=[[0,0.5],[1,0.5]];portConstraint=eastwest;dropTarget=0;" vertex="1" parent="6iNIvZ5y2WaDhr4YdJaO-69">
          <mxGeometry y="108" width="160" height="10" as="geometry" />
        </mxCell>
        <mxCell id="6iNIvZ5y2WaDhr4YdJaO-77" value="" style="shape=partialRectangle;top=0;left=0;bottom=0;html=1;fillColor=none;align=left;verticalAlign=top;spacingLeft=4;spacingRight=4;whiteSpace=wrap;overflow=hidden;rotatable=0;points=[];portConstraint=eastwest;part=1;" vertex="1" connectable="0" parent="6iNIvZ5y2WaDhr4YdJaO-76">
          <mxGeometry width="30" height="10" as="geometry" />
        </mxCell>
        <mxCell id="6iNIvZ5y2WaDhr4YdJaO-78" value="" style="edgeStyle=entityRelationEdgeStyle;fontSize=12;html=1;endArrow=ERzeroToMany;endFill=1;rounded=0;strokeWidth=2;fillColor=#dae8fc;strokeColor=#6c8ebf;" edge="1" parent="1" source="6iNIvZ5y2WaDhr4YdJaO-13">
          <mxGeometry width="100" height="100" relative="1" as="geometry">
            <mxPoint x="-100" y="380" as="sourcePoint" />
            <mxPoint x="-180" y="233" as="targetPoint" />
          </mxGeometry>
        </mxCell>
        <mxCell id="6iNIvZ5y2WaDhr4YdJaO-79" value="" style="edgeStyle=entityRelationEdgeStyle;fontSize=12;html=1;endArrow=ERzeroToMany;endFill=1;rounded=0;" edge="1" parent="1" source="6iNIvZ5y2WaDhr4YdJaO-40" target="6iNIvZ5y2WaDhr4YdJaO-69">
          <mxGeometry width="100" height="100" relative="1" as="geometry">
            <mxPoint x="-90" y="424" as="sourcePoint" />
            <mxPoint x="-10" y="289" as="targetPoint" />
          </mxGeometry>
        </mxCell>
        <mxCell id="6iNIvZ5y2WaDhr4YdJaO-80" value="" style="edgeStyle=orthogonalEdgeStyle;fontSize=12;html=1;endArrow=ERzeroToMany;endFill=1;rounded=0;exitX=1;exitY=0.5;exitDx=0;exitDy=0;strokeWidth=2;fillColor=#dae8fc;strokeColor=#6c8ebf;" edge="1" parent="1" source="6iNIvZ5y2WaDhr4YdJaO-14" target="6iNIvZ5y2WaDhr4YdJaO-27">
          <mxGeometry width="100" height="100" relative="1" as="geometry">
            <mxPoint x="-100" y="420" as="sourcePoint" />
            <mxPoint x="-10" y="289" as="targetPoint" />
            <Array as="points">
              <mxPoint x="20" y="455" />
              <mxPoint x="20" y="549" />
            </Array>
          </mxGeometry>
        </mxCell>
        <mxCell id="6iNIvZ5y2WaDhr4YdJaO-81" value="" style="edgeStyle=orthogonalEdgeStyle;fontSize=12;html=1;endArrow=ERzeroToMany;endFill=1;rounded=0;exitX=1;exitY=0.5;exitDx=0;exitDy=0;strokeWidth=2;fillColor=#dae8fc;strokeColor=#6c8ebf;" edge="1" parent="1" source="6iNIvZ5y2WaDhr4YdJaO-14" target="6iNIvZ5y2WaDhr4YdJaO-2">
          <mxGeometry width="100" height="100" relative="1" as="geometry">
            <mxPoint x="-10" y="496" as="sourcePoint" />
            <mxPoint x="96.96000000000004" y="478.384" as="targetPoint" />
            <Array as="points">
              <mxPoint x="-20" y="450" />
              <mxPoint x="30" y="450" />
              <mxPoint x="30" y="386" />
            </Array>
          </mxGeometry>
        </mxCell>
        <mxCell id="6iNIvZ5y2WaDhr4YdJaO-82" value="" style="edgeStyle=orthogonalEdgeStyle;fontSize=12;html=1;endArrow=ERzeroToMany;endFill=1;rounded=0;fillColor=#dae8fc;strokeColor=#6c8ebf;strokeWidth=2;" edge="1" parent="1" target="6iNIvZ5y2WaDhr4YdJaO-88">
          <mxGeometry width="100" height="100" relative="1" as="geometry">
            <mxPoint x="-100" y="560" as="sourcePoint" />
            <mxPoint x="90" y="756" as="targetPoint" />
            <Array as="points">
              <mxPoint x="-100" y="810" />
            </Array>
          </mxGeometry>
        </mxCell>
        <mxCell id="6iNIvZ5y2WaDhr4YdJaO-83" value="events" style="swimlane;html=1;fontStyle=0;childLayout=stackLayout;horizontal=1;startSize=26;fillColor=#e0e0e0;horizontalStack=0;resizeParent=1;resizeLast=0;collapsible=1;marginBottom=0;swimlaneFillColor=#ffffff;align=center;rounded=0;shadow=0;comic=0;labelBackgroundColor=none;strokeWidth=1;fontFamily=Verdana;fontSize=14" vertex="1" parent="1">
          <mxGeometry x="80" y="718" width="160" height="160" as="geometry" />
        </mxCell>
        <mxCell id="6iNIvZ5y2WaDhr4YdJaO-84" value="id" style="shape=partialRectangle;top=0;left=0;right=0;bottom=1;html=1;align=left;verticalAlign=middle;fillColor=none;spacingLeft=34;spacingRight=4;whiteSpace=wrap;overflow=hidden;rotatable=0;points=[[0,0.5],[1,0.5]];portConstraint=eastwest;dropTarget=0;fontStyle=5;" vertex="1" parent="6iNIvZ5y2WaDhr4YdJaO-83">
          <mxGeometry y="26" width="160" height="30" as="geometry" />
        </mxCell>
        <mxCell id="6iNIvZ5y2WaDhr4YdJaO-85" value="PK" style="shape=partialRectangle;top=0;left=0;bottom=0;html=1;fillColor=none;align=left;verticalAlign=middle;spacingLeft=4;spacingRight=4;whiteSpace=wrap;overflow=hidden;rotatable=0;points=[];portConstraint=eastwest;part=1;" vertex="1" connectable="0" parent="6iNIvZ5y2WaDhr4YdJaO-84">
          <mxGeometry width="30" height="30" as="geometry" />
        </mxCell>
        <mxCell id="6iNIvZ5y2WaDhr4YdJaO-86" value="graduation_albums_id" style="shape=partialRectangle;top=0;left=0;right=0;bottom=0;html=1;align=left;verticalAlign=top;fillColor=none;spacingLeft=34;spacingRight=4;whiteSpace=wrap;overflow=hidden;rotatable=0;points=[[0,0.5],[1,0.5]];portConstraint=eastwest;dropTarget=0;" vertex="1" parent="6iNIvZ5y2WaDhr4YdJaO-83">
          <mxGeometry y="56" width="160" height="26" as="geometry" />
        </mxCell>
        <mxCell id="6iNIvZ5y2WaDhr4YdJaO-87" value="FK" style="shape=partialRectangle;top=0;left=0;bottom=0;html=1;fillColor=none;align=left;verticalAlign=top;spacingLeft=4;spacingRight=4;whiteSpace=wrap;overflow=hidden;rotatable=0;points=[];portConstraint=eastwest;part=1;" vertex="1" connectable="0" parent="6iNIvZ5y2WaDhr4YdJaO-86">
          <mxGeometry width="30" height="26" as="geometry" />
        </mxCell>
        <mxCell id="6iNIvZ5y2WaDhr4YdJaO-88" value="event_title" style="shape=partialRectangle;top=0;left=0;right=0;bottom=0;html=1;align=left;verticalAlign=top;fillColor=none;spacingLeft=34;spacingRight=4;whiteSpace=wrap;overflow=hidden;rotatable=0;points=[[0,0.5],[1,0.5]];portConstraint=eastwest;dropTarget=0;" vertex="1" parent="6iNIvZ5y2WaDhr4YdJaO-83">
          <mxGeometry y="82" width="160" height="26" as="geometry" />
        </mxCell>
        <mxCell id="6iNIvZ5y2WaDhr4YdJaO-89" value="" style="shape=partialRectangle;top=0;left=0;bottom=0;html=1;fillColor=none;align=left;verticalAlign=top;spacingLeft=4;spacingRight=4;whiteSpace=wrap;overflow=hidden;rotatable=0;points=[];portConstraint=eastwest;part=1;" vertex="1" connectable="0" parent="6iNIvZ5y2WaDhr4YdJaO-88">
          <mxGeometry width="30" height="26" as="geometry" />
        </mxCell>
        <mxCell id="6iNIvZ5y2WaDhr4YdJaO-90" value="event_description" style="shape=partialRectangle;top=0;left=0;right=0;bottom=0;html=1;align=left;verticalAlign=top;fillColor=none;spacingLeft=34;spacingRight=4;whiteSpace=wrap;overflow=hidden;rotatable=0;points=[[0,0.5],[1,0.5]];portConstraint=eastwest;dropTarget=0;" vertex="1" parent="6iNIvZ5y2WaDhr4YdJaO-83">
          <mxGeometry y="108" width="160" height="26" as="geometry" />
        </mxCell>
        <mxCell id="6iNIvZ5y2WaDhr4YdJaO-91" value="" style="shape=partialRectangle;top=0;left=0;bottom=0;html=1;fillColor=none;align=left;verticalAlign=top;spacingLeft=4;spacingRight=4;whiteSpace=wrap;overflow=hidden;rotatable=0;points=[];portConstraint=eastwest;part=1;" vertex="1" connectable="0" parent="6iNIvZ5y2WaDhr4YdJaO-90">
          <mxGeometry width="30" height="26" as="geometry" />
        </mxCell>
        <mxCell id="6iNIvZ5y2WaDhr4YdJaO-92" value="event_photo" style="shape=partialRectangle;top=0;left=0;right=0;bottom=0;html=1;align=left;verticalAlign=top;fillColor=none;spacingLeft=34;spacingRight=4;whiteSpace=wrap;overflow=hidden;rotatable=0;points=[[0,0.5],[1,0.5]];portConstraint=eastwest;dropTarget=0;" vertex="1" parent="6iNIvZ5y2WaDhr4YdJaO-83">
          <mxGeometry y="134" width="160" height="26" as="geometry" />
        </mxCell>
        <mxCell id="6iNIvZ5y2WaDhr4YdJaO-93" value="" style="shape=partialRectangle;top=0;left=0;bottom=0;html=1;fillColor=none;align=left;verticalAlign=top;spacingLeft=4;spacingRight=4;whiteSpace=wrap;overflow=hidden;rotatable=0;points=[];portConstraint=eastwest;part=1;" vertex="1" connectable="0" parent="6iNIvZ5y2WaDhr4YdJaO-92">
          <mxGeometry width="30" height="26" as="geometry" />
        </mxCell>
        <mxCell id="6iNIvZ5y2WaDhr4YdJaO-94" value="Choice_answers" style="swimlane;html=1;fontStyle=0;childLayout=stackLayout;horizontal=1;startSize=26;fillColor=#e0e0e0;horizontalStack=0;resizeParent=1;resizeLast=0;collapsible=1;marginBottom=0;swimlaneFillColor=#ffffff;align=center;rounded=0;shadow=0;comic=0;labelBackgroundColor=none;strokeWidth=1;fontFamily=Verdana;fontSize=14;swimlaneLine=1;" vertex="1" parent="1">
          <mxGeometry x="320" y="244" width="160" height="110" as="geometry" />
        </mxCell>
        <mxCell id="6iNIvZ5y2WaDhr4YdJaO-95" value="id" style="shape=partialRectangle;top=0;left=0;right=0;bottom=1;html=1;align=left;verticalAlign=middle;fillColor=none;spacingLeft=34;spacingRight=4;whiteSpace=wrap;overflow=hidden;rotatable=0;points=[[0,0.5],[1,0.5]];portConstraint=eastwest;dropTarget=0;fontStyle=5;" vertex="1" parent="6iNIvZ5y2WaDhr4YdJaO-94">
          <mxGeometry y="26" width="160" height="30" as="geometry" />
        </mxCell>
        <mxCell id="6iNIvZ5y2WaDhr4YdJaO-96" value="PK" style="shape=partialRectangle;top=0;left=0;bottom=0;html=1;fillColor=none;align=left;verticalAlign=middle;spacingLeft=4;spacingRight=4;whiteSpace=wrap;overflow=hidden;rotatable=0;points=[];portConstraint=eastwest;part=1;" vertex="1" connectable="0" parent="6iNIvZ5y2WaDhr4YdJaO-95">
          <mxGeometry width="30" height="30" as="geometry" />
        </mxCell>
        <mxCell id="6iNIvZ5y2WaDhr4YdJaO-97" value="answer_id" style="shape=partialRectangle;top=0;left=0;right=0;bottom=0;html=1;align=left;verticalAlign=top;fillColor=none;spacingLeft=34;spacingRight=4;whiteSpace=wrap;overflow=hidden;rotatable=0;points=[[0,0.5],[1,0.5]];portConstraint=eastwest;dropTarget=0;" vertex="1" parent="6iNIvZ5y2WaDhr4YdJaO-94">
          <mxGeometry y="56" width="160" height="26" as="geometry" />
        </mxCell>
        <mxCell id="6iNIvZ5y2WaDhr4YdJaO-98" value="FK" style="shape=partialRectangle;top=0;left=0;bottom=0;html=1;fillColor=none;align=left;verticalAlign=top;spacingLeft=4;spacingRight=4;whiteSpace=wrap;overflow=hidden;rotatable=0;points=[];portConstraint=eastwest;part=1;" vertex="1" connectable="0" parent="6iNIvZ5y2WaDhr4YdJaO-97">
          <mxGeometry width="30" height="26" as="geometry" />
        </mxCell>
        <mxCell id="6iNIvZ5y2WaDhr4YdJaO-99" value="rank_choice_id" style="shape=partialRectangle;top=0;left=0;right=0;bottom=0;html=1;align=left;verticalAlign=top;fillColor=none;spacingLeft=34;spacingRight=4;whiteSpace=wrap;overflow=hidden;rotatable=0;points=[[0,0.5],[1,0.5]];portConstraint=eastwest;dropTarget=0;" vertex="1" parent="6iNIvZ5y2WaDhr4YdJaO-94">
          <mxGeometry y="82" width="160" height="22" as="geometry" />
        </mxCell>
        <mxCell id="6iNIvZ5y2WaDhr4YdJaO-100" value="FK" style="shape=partialRectangle;top=0;left=0;bottom=0;html=1;fillColor=none;align=left;verticalAlign=top;spacingLeft=4;spacingRight=4;whiteSpace=wrap;overflow=hidden;rotatable=0;points=[];portConstraint=eastwest;part=1;" vertex="1" connectable="0" parent="6iNIvZ5y2WaDhr4YdJaO-99">
          <mxGeometry width="30" height="22" as="geometry" />
        </mxCell>
        <mxCell id="6iNIvZ5y2WaDhr4YdJaO-101" value="Event_comments" style="swimlane;html=1;fontStyle=0;childLayout=stackLayout;horizontal=1;startSize=26;fillColor=#e0e0e0;horizontalStack=0;resizeParent=1;resizeLast=0;collapsible=1;marginBottom=0;swimlaneFillColor=#ffffff;align=center;rounded=0;shadow=0;comic=0;labelBackgroundColor=none;strokeWidth=1;fontFamily=Verdana;fontSize=14;swimlaneLine=1;" vertex="1" parent="1">
          <mxGeometry x="310" y="718" width="160" height="104" as="geometry" />
        </mxCell>
        <mxCell id="6iNIvZ5y2WaDhr4YdJaO-102" value="id" style="shape=partialRectangle;top=0;left=0;right=0;bottom=1;html=1;align=left;verticalAlign=middle;fillColor=none;spacingLeft=34;spacingRight=4;whiteSpace=wrap;overflow=hidden;rotatable=0;points=[[0,0.5],[1,0.5]];portConstraint=eastwest;dropTarget=0;fontStyle=5;" vertex="1" parent="6iNIvZ5y2WaDhr4YdJaO-101">
          <mxGeometry y="26" width="160" height="30" as="geometry" />
        </mxCell>
        <mxCell id="6iNIvZ5y2WaDhr4YdJaO-103" value="PK" style="shape=partialRectangle;top=0;left=0;bottom=0;html=1;fillColor=none;align=left;verticalAlign=middle;spacingLeft=4;spacingRight=4;whiteSpace=wrap;overflow=hidden;rotatable=0;points=[];portConstraint=eastwest;part=1;" vertex="1" connectable="0" parent="6iNIvZ5y2WaDhr4YdJaO-102">
          <mxGeometry width="30" height="30" as="geometry" />
        </mxCell>
        <mxCell id="6iNIvZ5y2WaDhr4YdJaO-104" value="event_id" style="shape=partialRectangle;top=0;left=0;right=0;bottom=0;html=1;align=left;verticalAlign=top;fillColor=none;spacingLeft=34;spacingRight=4;whiteSpace=wrap;overflow=hidden;rotatable=0;points=[[0,0.5],[1,0.5]];portConstraint=eastwest;dropTarget=0;" vertex="1" parent="6iNIvZ5y2WaDhr4YdJaO-101">
          <mxGeometry y="56" width="160" height="26" as="geometry" />
        </mxCell>
        <mxCell id="6iNIvZ5y2WaDhr4YdJaO-105" value="FK" style="shape=partialRectangle;top=0;left=0;bottom=0;html=1;fillColor=none;align=left;verticalAlign=top;spacingLeft=4;spacingRight=4;whiteSpace=wrap;overflow=hidden;rotatable=0;points=[];portConstraint=eastwest;part=1;" vertex="1" connectable="0" parent="6iNIvZ5y2WaDhr4YdJaO-104">
          <mxGeometry width="30" height="26" as="geometry" />
        </mxCell>
        <mxCell id="6iNIvZ5y2WaDhr4YdJaO-106" value="body" style="shape=partialRectangle;top=0;left=0;right=0;bottom=0;html=1;align=left;verticalAlign=top;fillColor=none;spacingLeft=34;spacingRight=4;whiteSpace=wrap;overflow=hidden;rotatable=0;points=[[0,0.5],[1,0.5]];portConstraint=eastwest;dropTarget=0;" vertex="1" parent="6iNIvZ5y2WaDhr4YdJaO-101">
          <mxGeometry y="82" width="160" height="22" as="geometry" />
        </mxCell>
        <mxCell id="6iNIvZ5y2WaDhr4YdJaO-107" value="" style="shape=partialRectangle;top=0;left=0;bottom=0;html=1;fillColor=none;align=left;verticalAlign=top;spacingLeft=4;spacingRight=4;whiteSpace=wrap;overflow=hidden;rotatable=0;points=[];portConstraint=eastwest;part=1;" vertex="1" connectable="0" parent="6iNIvZ5y2WaDhr4YdJaO-106">
          <mxGeometry width="30" height="22" as="geometry" />
        </mxCell>
        <mxCell id="6iNIvZ5y2WaDhr4YdJaO-108" value="Rank_choices" style="swimlane;html=1;fontStyle=0;childLayout=stackLayout;horizontal=1;startSize=26;fillColor=#e0e0e0;horizontalStack=0;resizeParent=1;resizeLast=0;collapsible=1;marginBottom=0;swimlaneFillColor=#ffffff;align=center;rounded=0;shadow=0;comic=0;labelBackgroundColor=none;strokeWidth=1;fontFamily=Verdana;fontSize=14;swimlaneLine=1;" vertex="1" parent="1">
          <mxGeometry x="320" y="410" width="160" height="110" as="geometry" />
        </mxCell>
        <mxCell id="6iNIvZ5y2WaDhr4YdJaO-109" value="id" style="shape=partialRectangle;top=0;left=0;right=0;bottom=1;html=1;align=left;verticalAlign=middle;fillColor=none;spacingLeft=34;spacingRight=4;whiteSpace=wrap;overflow=hidden;rotatable=0;points=[[0,0.5],[1,0.5]];portConstraint=eastwest;dropTarget=0;fontStyle=5;" vertex="1" parent="6iNIvZ5y2WaDhr4YdJaO-108">
          <mxGeometry y="26" width="160" height="30" as="geometry" />
        </mxCell>
        <mxCell id="6iNIvZ5y2WaDhr4YdJaO-110" value="PK" style="shape=partialRectangle;top=0;left=0;bottom=0;html=1;fillColor=none;align=left;verticalAlign=middle;spacingLeft=4;spacingRight=4;whiteSpace=wrap;overflow=hidden;rotatable=0;points=[];portConstraint=eastwest;part=1;" vertex="1" connectable="0" parent="6iNIvZ5y2WaDhr4YdJaO-109">
          <mxGeometry width="30" height="30" as="geometry" />
        </mxCell>
        <mxCell id="6iNIvZ5y2WaDhr4YdJaO-111" value="rank_id" style="shape=partialRectangle;top=0;left=0;right=0;bottom=0;html=1;align=left;verticalAlign=top;fillColor=none;spacingLeft=34;spacingRight=4;whiteSpace=wrap;overflow=hidden;rotatable=0;points=[[0,0.5],[1,0.5]];portConstraint=eastwest;dropTarget=0;" vertex="1" parent="6iNIvZ5y2WaDhr4YdJaO-108">
          <mxGeometry y="56" width="160" height="26" as="geometry" />
        </mxCell>
        <mxCell id="6iNIvZ5y2WaDhr4YdJaO-112" value="FK" style="shape=partialRectangle;top=0;left=0;bottom=0;html=1;fillColor=none;align=left;verticalAlign=top;spacingLeft=4;spacingRight=4;whiteSpace=wrap;overflow=hidden;rotatable=0;points=[];portConstraint=eastwest;part=1;" vertex="1" connectable="0" parent="6iNIvZ5y2WaDhr4YdJaO-111">
          <mxGeometry width="30" height="26" as="geometry" />
        </mxCell>
        <mxCell id="6iNIvZ5y2WaDhr4YdJaO-113" value="content" style="shape=partialRectangle;top=0;left=0;right=0;bottom=0;html=1;align=left;verticalAlign=top;fillColor=none;spacingLeft=34;spacingRight=4;whiteSpace=wrap;overflow=hidden;rotatable=0;points=[[0,0.5],[1,0.5]];portConstraint=eastwest;dropTarget=0;" vertex="1" parent="6iNIvZ5y2WaDhr4YdJaO-108">
          <mxGeometry y="82" width="160" height="22" as="geometry" />
        </mxCell>
        <mxCell id="6iNIvZ5y2WaDhr4YdJaO-114" value="" style="shape=partialRectangle;top=0;left=0;bottom=0;html=1;fillColor=none;align=left;verticalAlign=top;spacingLeft=4;spacingRight=4;whiteSpace=wrap;overflow=hidden;rotatable=0;points=[];portConstraint=eastwest;part=1;" vertex="1" connectable="0" parent="6iNIvZ5y2WaDhr4YdJaO-113">
          <mxGeometry width="30" height="22" as="geometry" />
        </mxCell>
        <mxCell id="6iNIvZ5y2WaDhr4YdJaO-115" value="" style="edgeStyle=entityRelationEdgeStyle;fontSize=12;html=1;endArrow=ERzeroToMany;endFill=1;rounded=0;exitX=1;exitY=0.5;exitDx=0;exitDy=0;" edge="1" parent="1" source="6iNIvZ5y2WaDhr4YdJaO-84" target="6iNIvZ5y2WaDhr4YdJaO-104">
          <mxGeometry width="100" height="100" relative="1" as="geometry">
            <mxPoint x="550" y="670" as="sourcePoint" />
            <mxPoint x="605" y="770" as="targetPoint" />
          </mxGeometry>
        </mxCell>
        <mxCell id="6iNIvZ5y2WaDhr4YdJaO-116" value="" style="edgeStyle=entityRelationEdgeStyle;fontSize=12;html=1;endArrow=ERzeroToMany;endFill=1;rounded=0;fillColor=#d5e8d4;strokeColor=#82b366;strokeWidth=2;" edge="1" parent="1" source="6iNIvZ5y2WaDhr4YdJaO-40" target="6iNIvZ5y2WaDhr4YdJaO-9">
          <mxGeometry width="100" height="100" relative="1" as="geometry">
            <mxPoint x="90" y="182.0000000000001" as="sourcePoint" />
            <mxPoint x="-10" y="289" as="targetPoint" />
          </mxGeometry>
        </mxCell>
        <mxCell id="6iNIvZ5y2WaDhr4YdJaO-117" value="" style="edgeStyle=orthogonalEdgeStyle;fontSize=12;html=1;endArrow=ERzeroToMany;endFill=1;rounded=0;fillColor=#d5e8d4;strokeColor=#82b366;strokeWidth=2;" edge="1" parent="1" source="6iNIvZ5y2WaDhr4YdJaO-40" target="6iNIvZ5y2WaDhr4YdJaO-29">
          <mxGeometry width="100" height="100" relative="1" as="geometry">
            <mxPoint x="90" y="151" as="sourcePoint" />
            <mxPoint x="-10" y="289" as="targetPoint" />
            <Array as="points">
              <mxPoint x="280" y="141" />
              <mxPoint x="280" y="575" />
            </Array>
          </mxGeometry>
        </mxCell>
        <mxCell id="6iNIvZ5y2WaDhr4YdJaO-118" value="Message_for_everyones" style="swimlane;html=1;fontStyle=0;childLayout=stackLayout;horizontal=1;startSize=26;fillColor=#e0e0e0;horizontalStack=0;resizeParent=1;resizeLast=0;collapsible=1;marginBottom=0;swimlaneFillColor=#ffffff;align=center;rounded=0;shadow=0;comic=0;labelBackgroundColor=none;strokeWidth=1;fontFamily=Verdana;fontSize=14" vertex="1" parent="1">
          <mxGeometry x="-545" y="440" width="225" height="118" as="geometry" />
        </mxCell>
        <mxCell id="6iNIvZ5y2WaDhr4YdJaO-119" value="id" style="shape=partialRectangle;top=0;left=0;right=0;bottom=1;html=1;align=left;verticalAlign=middle;fillColor=none;spacingLeft=34;spacingRight=4;whiteSpace=wrap;overflow=hidden;rotatable=0;points=[[0,0.5],[1,0.5]];portConstraint=eastwest;dropTarget=0;fontStyle=5;" vertex="1" parent="6iNIvZ5y2WaDhr4YdJaO-118">
          <mxGeometry y="26" width="225" height="30" as="geometry" />
        </mxCell>
        <mxCell id="6iNIvZ5y2WaDhr4YdJaO-120" value="PK" style="shape=partialRectangle;top=0;left=0;bottom=0;html=1;fillColor=none;align=left;verticalAlign=middle;spacingLeft=4;spacingRight=4;whiteSpace=wrap;overflow=hidden;rotatable=0;points=[];portConstraint=eastwest;part=1;" vertex="1" connectable="0" parent="6iNIvZ5y2WaDhr4YdJaO-119">
          <mxGeometry width="30" height="30" as="geometry" />
        </mxCell>
        <mxCell id="6iNIvZ5y2WaDhr4YdJaO-121" value="graduation_albums_id" style="shape=partialRectangle;top=0;left=0;right=0;bottom=0;html=1;align=left;verticalAlign=top;fillColor=none;spacingLeft=34;spacingRight=4;whiteSpace=wrap;overflow=hidden;rotatable=0;points=[[0,0.5],[1,0.5]];portConstraint=eastwest;dropTarget=0;" vertex="1" parent="6iNIvZ5y2WaDhr4YdJaO-118">
          <mxGeometry y="56" width="225" height="26" as="geometry" />
        </mxCell>
        <mxCell id="6iNIvZ5y2WaDhr4YdJaO-122" value="FK" style="shape=partialRectangle;top=0;left=0;bottom=0;html=1;fillColor=none;align=left;verticalAlign=top;spacingLeft=4;spacingRight=4;whiteSpace=wrap;overflow=hidden;rotatable=0;points=[];portConstraint=eastwest;part=1;" vertex="1" connectable="0" parent="6iNIvZ5y2WaDhr4YdJaO-121">
          <mxGeometry width="30" height="26" as="geometry" />
        </mxCell>
        <mxCell id="6iNIvZ5y2WaDhr4YdJaO-123" value="body" style="shape=partialRectangle;top=0;left=0;right=0;bottom=0;html=1;align=left;verticalAlign=top;fillColor=none;spacingLeft=34;spacingRight=4;whiteSpace=wrap;overflow=hidden;rotatable=0;points=[[0,0.5],[1,0.5]];portConstraint=eastwest;dropTarget=0;" vertex="1" parent="6iNIvZ5y2WaDhr4YdJaO-118">
          <mxGeometry y="82" width="225" height="26" as="geometry" />
        </mxCell>
        <mxCell id="6iNIvZ5y2WaDhr4YdJaO-124" value="" style="shape=partialRectangle;top=0;left=0;bottom=0;html=1;fillColor=none;align=left;verticalAlign=top;spacingLeft=4;spacingRight=4;whiteSpace=wrap;overflow=hidden;rotatable=0;points=[];portConstraint=eastwest;part=1;" vertex="1" connectable="0" parent="6iNIvZ5y2WaDhr4YdJaO-123">
          <mxGeometry width="30" height="26" as="geometry" />
        </mxCell>
        <mxCell id="6iNIvZ5y2WaDhr4YdJaO-125" value="" style="shape=partialRectangle;top=0;left=0;right=0;bottom=0;html=1;align=left;verticalAlign=top;fillColor=none;spacingLeft=34;spacingRight=4;whiteSpace=wrap;overflow=hidden;rotatable=0;points=[[0,0.5],[1,0.5]];portConstraint=eastwest;dropTarget=0;" vertex="1" parent="6iNIvZ5y2WaDhr4YdJaO-118">
          <mxGeometry y="108" width="225" height="10" as="geometry" />
        </mxCell>
        <mxCell id="6iNIvZ5y2WaDhr4YdJaO-126" value="" style="shape=partialRectangle;top=0;left=0;bottom=0;html=1;fillColor=none;align=left;verticalAlign=top;spacingLeft=4;spacingRight=4;whiteSpace=wrap;overflow=hidden;rotatable=0;points=[];portConstraint=eastwest;part=1;" vertex="1" connectable="0" parent="6iNIvZ5y2WaDhr4YdJaO-125">
          <mxGeometry width="30" height="10" as="geometry" />
        </mxCell>
        <mxCell id="6iNIvZ5y2WaDhr4YdJaO-127" value="Message_for_each_menbers" style="swimlane;html=1;fontStyle=0;childLayout=stackLayout;horizontal=1;startSize=26;fillColor=#e0e0e0;horizontalStack=0;resizeParent=1;resizeLast=0;collapsible=1;marginBottom=0;swimlaneFillColor=#ffffff;align=center;rounded=0;shadow=0;comic=0;labelBackgroundColor=none;strokeWidth=1;fontFamily=Verdana;fontSize=14" vertex="1" parent="1">
          <mxGeometry x="-550" y="207" width="230" height="144" as="geometry" />
        </mxCell>
        <mxCell id="6iNIvZ5y2WaDhr4YdJaO-128" value="id" style="shape=partialRectangle;top=0;left=0;right=0;bottom=1;html=1;align=left;verticalAlign=middle;fillColor=none;spacingLeft=34;spacingRight=4;whiteSpace=wrap;overflow=hidden;rotatable=0;points=[[0,0.5],[1,0.5]];portConstraint=eastwest;dropTarget=0;fontStyle=5;" vertex="1" parent="6iNIvZ5y2WaDhr4YdJaO-127">
          <mxGeometry y="26" width="230" height="30" as="geometry" />
        </mxCell>
        <mxCell id="6iNIvZ5y2WaDhr4YdJaO-129" value="PK" style="shape=partialRectangle;top=0;left=0;bottom=0;html=1;fillColor=none;align=left;verticalAlign=middle;spacingLeft=4;spacingRight=4;whiteSpace=wrap;overflow=hidden;rotatable=0;points=[];portConstraint=eastwest;part=1;" vertex="1" connectable="0" parent="6iNIvZ5y2WaDhr4YdJaO-128">
          <mxGeometry width="30" height="30" as="geometry" />
        </mxCell>
        <mxCell id="6iNIvZ5y2WaDhr4YdJaO-130" value="graduation_albums_id" style="shape=partialRectangle;top=0;left=0;right=0;bottom=0;html=1;align=left;verticalAlign=top;fillColor=none;spacingLeft=34;spacingRight=4;whiteSpace=wrap;overflow=hidden;rotatable=0;points=[[0,0.5],[1,0.5]];portConstraint=eastwest;dropTarget=0;" vertex="1" parent="6iNIvZ5y2WaDhr4YdJaO-127">
          <mxGeometry y="56" width="230" height="26" as="geometry" />
        </mxCell>
        <mxCell id="6iNIvZ5y2WaDhr4YdJaO-131" value="FK" style="shape=partialRectangle;top=0;left=0;bottom=0;html=1;fillColor=none;align=left;verticalAlign=top;spacingLeft=4;spacingRight=4;whiteSpace=wrap;overflow=hidden;rotatable=0;points=[];portConstraint=eastwest;part=1;" vertex="1" connectable="0" parent="6iNIvZ5y2WaDhr4YdJaO-130">
          <mxGeometry width="30" height="26" as="geometry" />
        </mxCell>
        <mxCell id="6iNIvZ5y2WaDhr4YdJaO-132" value="user_id" style="shape=partialRectangle;top=0;left=0;right=0;bottom=0;html=1;align=left;verticalAlign=top;fillColor=none;spacingLeft=34;spacingRight=4;whiteSpace=wrap;overflow=hidden;rotatable=0;points=[[0,0.5],[1,0.5]];portConstraint=eastwest;dropTarget=0;" vertex="1" parent="6iNIvZ5y2WaDhr4YdJaO-127">
          <mxGeometry y="82" width="230" height="26" as="geometry" />
        </mxCell>
        <mxCell id="6iNIvZ5y2WaDhr4YdJaO-133" value="FK" style="shape=partialRectangle;top=0;left=0;bottom=0;html=1;fillColor=none;align=left;verticalAlign=top;spacingLeft=4;spacingRight=4;whiteSpace=wrap;overflow=hidden;rotatable=0;points=[];portConstraint=eastwest;part=1;" vertex="1" connectable="0" parent="6iNIvZ5y2WaDhr4YdJaO-132">
          <mxGeometry width="30" height="26" as="geometry" />
        </mxCell>
        <mxCell id="6iNIvZ5y2WaDhr4YdJaO-134" value="body" style="shape=partialRectangle;top=0;left=0;right=0;bottom=0;html=1;align=left;verticalAlign=top;fillColor=none;spacingLeft=34;spacingRight=4;whiteSpace=wrap;overflow=hidden;rotatable=0;points=[[0,0.5],[1,0.5]];portConstraint=eastwest;dropTarget=0;" vertex="1" parent="6iNIvZ5y2WaDhr4YdJaO-127">
          <mxGeometry y="108" width="230" height="26" as="geometry" />
        </mxCell>
        <mxCell id="6iNIvZ5y2WaDhr4YdJaO-135" value="" style="shape=partialRectangle;top=0;left=0;bottom=0;html=1;fillColor=none;align=left;verticalAlign=top;spacingLeft=4;spacingRight=4;whiteSpace=wrap;overflow=hidden;rotatable=0;points=[];portConstraint=eastwest;part=1;" vertex="1" connectable="0" parent="6iNIvZ5y2WaDhr4YdJaO-134">
          <mxGeometry width="30" height="26" as="geometry" />
        </mxCell>
        <mxCell id="6iNIvZ5y2WaDhr4YdJaO-136" value="" style="shape=partialRectangle;top=0;left=0;right=0;bottom=0;html=1;align=left;verticalAlign=top;fillColor=none;spacingLeft=34;spacingRight=4;whiteSpace=wrap;overflow=hidden;rotatable=0;points=[[0,0.5],[1,0.5]];portConstraint=eastwest;dropTarget=0;" vertex="1" parent="6iNIvZ5y2WaDhr4YdJaO-127">
          <mxGeometry y="134" width="230" height="10" as="geometry" />
        </mxCell>
        <mxCell id="6iNIvZ5y2WaDhr4YdJaO-137" value="" style="shape=partialRectangle;top=0;left=0;bottom=0;html=1;fillColor=none;align=left;verticalAlign=top;spacingLeft=4;spacingRight=4;whiteSpace=wrap;overflow=hidden;rotatable=0;points=[];portConstraint=eastwest;part=1;" vertex="1" connectable="0" parent="6iNIvZ5y2WaDhr4YdJaO-136">
          <mxGeometry width="30" height="10" as="geometry" />
        </mxCell>
        <mxCell id="6iNIvZ5y2WaDhr4YdJaO-138" value="" style="edgeStyle=orthogonalEdgeStyle;fontSize=12;html=1;endArrow=ERzeroToMany;endFill=1;rounded=0;exitX=0;exitY=0.5;exitDx=0;exitDy=0;fillColor=#dae8fc;strokeColor=#6c8ebf;strokeWidth=2;" edge="1" parent="1" source="6iNIvZ5y2WaDhr4YdJaO-14" target="6iNIvZ5y2WaDhr4YdJaO-130">
          <mxGeometry width="100" height="100" relative="1" as="geometry">
            <mxPoint x="-120" y="523" as="sourcePoint" />
            <mxPoint x="-280" y="270" as="targetPoint" />
            <Array as="points">
              <mxPoint x="-280" y="455" />
              <mxPoint x="-280" y="276" />
            </Array>
          </mxGeometry>
        </mxCell>
        <mxCell id="6iNIvZ5y2WaDhr4YdJaO-139" value="" style="edgeStyle=orthogonalEdgeStyle;fontSize=12;html=1;endArrow=ERzeroToMany;endFill=1;rounded=0;fillColor=#d5e8d4;strokeColor=#82b366;strokeWidth=2;" edge="1" parent="1" source="6iNIvZ5y2WaDhr4YdJaO-40" target="6iNIvZ5y2WaDhr4YdJaO-132">
          <mxGeometry width="100" height="100" relative="1" as="geometry">
            <mxPoint x="-270" y="420" as="sourcePoint" />
            <mxPoint x="-310" y="286" as="targetPoint" />
            <Array as="points">
              <mxPoint x="-260" y="141" />
              <mxPoint x="-260" y="302" />
            </Array>
          </mxGeometry>
        </mxCell>
        <mxCell id="6iNIvZ5y2WaDhr4YdJaO-140" value="" style="edgeStyle=orthogonalEdgeStyle;fontSize=12;html=1;endArrow=ERzeroToMany;endFill=1;rounded=0;fillColor=#dae8fc;strokeColor=#6c8ebf;strokeWidth=2;" edge="1" parent="1" source="6iNIvZ5y2WaDhr4YdJaO-14" target="6iNIvZ5y2WaDhr4YdJaO-119">
          <mxGeometry width="100" height="100" relative="1" as="geometry">
            <mxPoint x="-170" y="465" as="sourcePoint" />
            <mxPoint x="-310" y="286" as="targetPoint" />
          </mxGeometry>
        </mxCell>
        <mxCell id="6iNIvZ5y2WaDhr4YdJaO-141" value="" style="edgeStyle=orthogonalEdgeStyle;fontSize=12;html=1;endArrow=ERzeroToMany;endFill=1;rounded=0;fillColor=#d5e8d4;strokeColor=#82b366;strokeWidth=2;" edge="1" parent="1" source="6iNIvZ5y2WaDhr4YdJaO-40" target="6iNIvZ5y2WaDhr4YdJaO-146">
          <mxGeometry width="100" height="100" relative="1" as="geometry">
            <mxPoint x="260" y="119" as="sourcePoint" />
            <mxPoint x="360" y="50" as="targetPoint" />
            <Array as="points">
              <mxPoint x="300" y="141" />
              <mxPoint x="300" y="150" />
            </Array>
          </mxGeometry>
        </mxCell>
        <mxCell id="6iNIvZ5y2WaDhr4YdJaO-142" value="" style="edgeStyle=orthogonalEdgeStyle;fontSize=12;html=1;endArrow=ERzeroToMany;endFill=1;rounded=0;" edge="1" parent="1" source="6iNIvZ5y2WaDhr4YdJaO-3" target="6iNIvZ5y2WaDhr4YdJaO-109">
          <mxGeometry width="100" height="100" relative="1" as="geometry">
            <mxPoint x="250" y="361" as="sourcePoint" />
            <mxPoint x="330" y="282.9999999999998" as="targetPoint" />
            <Array as="points">
              <mxPoint x="300" y="361" />
              <mxPoint x="300" y="451" />
            </Array>
          </mxGeometry>
        </mxCell>
        <mxCell id="6iNIvZ5y2WaDhr4YdJaO-143" value="Answers" style="swimlane;html=1;fontStyle=0;childLayout=stackLayout;horizontal=1;startSize=26;fillColor=#e0e0e0;horizontalStack=0;resizeParent=1;resizeLast=0;collapsible=1;marginBottom=0;swimlaneFillColor=#ffffff;align=center;rounded=0;shadow=0;comic=0;labelBackgroundColor=none;strokeWidth=1;fontFamily=Verdana;fontSize=14;swimlaneLine=1;" vertex="1" parent="1">
          <mxGeometry x="320" y="80" width="160" height="110" as="geometry" />
        </mxCell>
        <mxCell id="6iNIvZ5y2WaDhr4YdJaO-144" value="id" style="shape=partialRectangle;top=0;left=0;right=0;bottom=1;html=1;align=left;verticalAlign=middle;fillColor=none;spacingLeft=34;spacingRight=4;whiteSpace=wrap;overflow=hidden;rotatable=0;points=[[0,0.5],[1,0.5]];portConstraint=eastwest;dropTarget=0;fontStyle=5;" vertex="1" parent="6iNIvZ5y2WaDhr4YdJaO-143">
          <mxGeometry y="26" width="160" height="30" as="geometry" />
        </mxCell>
        <mxCell id="6iNIvZ5y2WaDhr4YdJaO-145" value="PK" style="shape=partialRectangle;top=0;left=0;bottom=0;html=1;fillColor=none;align=left;verticalAlign=middle;spacingLeft=4;spacingRight=4;whiteSpace=wrap;overflow=hidden;rotatable=0;points=[];portConstraint=eastwest;part=1;" vertex="1" connectable="0" parent="6iNIvZ5y2WaDhr4YdJaO-144">
          <mxGeometry width="30" height="30" as="geometry" />
        </mxCell>
        <mxCell id="6iNIvZ5y2WaDhr4YdJaO-146" value="user_id" style="shape=partialRectangle;top=0;left=0;right=0;bottom=0;html=1;align=left;verticalAlign=top;fillColor=none;spacingLeft=34;spacingRight=4;whiteSpace=wrap;overflow=hidden;rotatable=0;points=[[0,0.5],[1,0.5]];portConstraint=eastwest;dropTarget=0;" vertex="1" parent="6iNIvZ5y2WaDhr4YdJaO-143">
          <mxGeometry y="56" width="160" height="26" as="geometry" />
        </mxCell>
        <mxCell id="6iNIvZ5y2WaDhr4YdJaO-147" value="FK" style="shape=partialRectangle;top=0;left=0;bottom=0;html=1;fillColor=none;align=left;verticalAlign=top;spacingLeft=4;spacingRight=4;whiteSpace=wrap;overflow=hidden;rotatable=0;points=[];portConstraint=eastwest;part=1;" vertex="1" connectable="0" parent="6iNIvZ5y2WaDhr4YdJaO-146">
          <mxGeometry width="30" height="26" as="geometry" />
        </mxCell>
        <mxCell id="6iNIvZ5y2WaDhr4YdJaO-148" value="rank_id" style="shape=partialRectangle;top=0;left=0;right=0;bottom=0;html=1;align=left;verticalAlign=top;fillColor=none;spacingLeft=34;spacingRight=4;whiteSpace=wrap;overflow=hidden;rotatable=0;points=[[0,0.5],[1,0.5]];portConstraint=eastwest;dropTarget=0;" vertex="1" parent="6iNIvZ5y2WaDhr4YdJaO-143">
          <mxGeometry y="82" width="160" height="22" as="geometry" />
        </mxCell>
        <mxCell id="6iNIvZ5y2WaDhr4YdJaO-149" value="FK" style="shape=partialRectangle;top=0;left=0;bottom=0;html=1;fillColor=none;align=left;verticalAlign=top;spacingLeft=4;spacingRight=4;whiteSpace=wrap;overflow=hidden;rotatable=0;points=[];portConstraint=eastwest;part=1;" vertex="1" connectable="0" parent="6iNIvZ5y2WaDhr4YdJaO-148">
          <mxGeometry width="30" height="22" as="geometry" />
        </mxCell>
        <mxCell id="6iNIvZ5y2WaDhr4YdJaO-150" value="" style="edgeStyle=orthogonalEdgeStyle;fontSize=12;html=1;endArrow=ERzeroToMany;endFill=1;rounded=0;" edge="1" parent="1" target="6iNIvZ5y2WaDhr4YdJaO-94">
          <mxGeometry width="100" height="100" relative="1" as="geometry">
            <mxPoint x="400" y="190" as="sourcePoint" />
            <mxPoint x="410" y="270" as="targetPoint" />
            <Array as="points">
              <mxPoint x="400" y="200" />
              <mxPoint x="400" y="200" />
            </Array>
          </mxGeometry>
        </mxCell>
        <mxCell id="6iNIvZ5y2WaDhr4YdJaO-151" value="" style="edgeStyle=orthogonalEdgeStyle;fontSize=12;html=1;endArrow=ERzeroToMany;endFill=1;rounded=0;exitX=0.5;exitY=0;exitDx=0;exitDy=0;entryX=0.5;entryY=1;entryDx=0;entryDy=0;" edge="1" parent="1" source="6iNIvZ5y2WaDhr4YdJaO-108" target="6iNIvZ5y2WaDhr4YdJaO-94">
          <mxGeometry width="100" height="100" relative="1" as="geometry">
            <mxPoint x="410" y="200.0000000000001" as="sourcePoint" />
            <mxPoint x="400" y="360" as="targetPoint" />
            <Array as="points" />
          </mxGeometry>
        </mxCell>
        <mxCell id="6iNIvZ5y2WaDhr4YdJaO-152" value="" style="edgeStyle=orthogonalEdgeStyle;fontSize=12;html=1;endArrow=ERzeroToMany;endFill=1;rounded=0;" edge="1" parent="1" source="6iNIvZ5y2WaDhr4YdJaO-3" target="6iNIvZ5y2WaDhr4YdJaO-148">
          <mxGeometry width="100" height="100" relative="1" as="geometry">
            <mxPoint x="250.00000000000045" y="151.0588235294117" as="sourcePoint" />
            <mxPoint x="329.99999999999955" y="160" as="targetPoint" />
            <Array as="points">
              <mxPoint x="260" y="351" />
              <mxPoint x="260" y="173" />
            </Array>
          </mxGeometry>
        </mxCell>
        <mxCell id="6iNIvZ5y2WaDhr4YdJaO-153" value="" style="edgeStyle=orthogonalEdgeStyle;fontSize=12;html=1;endArrow=ERzeroToMany;endFill=1;rounded=0;entryX=0.014;entryY=-0.244;entryDx=0;entryDy=0;entryPerimeter=0;fillColor=#f8cecc;strokeColor=#b85450;strokeWidth=2;" edge="1" parent="1" source="6iNIvZ5y2WaDhr4YdJaO-55" target="6iNIvZ5y2WaDhr4YdJaO-42">
          <mxGeometry width="100" height="100" relative="1" as="geometry">
            <mxPoint x="-350" y="610" as="sourcePoint" />
            <mxPoint x="10" y="50" as="targetPoint" />
            <Array as="points">
              <mxPoint x="-580" y="733" />
              <mxPoint x="-580" y="110" />
              <mxPoint x="-10" y="110" />
              <mxPoint x="-10" y="150" />
            </Array>
          </mxGeometry>
        </mxCell>
        <mxCell id="6iNIvZ5y2WaDhr4YdJaO-154" value="" style="edgeStyle=orthogonalEdgeStyle;fontSize=12;html=1;endArrow=ERzeroToMany;endFill=1;rounded=0;entryX=0;entryY=0.5;entryDx=0;entryDy=0;fillColor=#f8cecc;strokeColor=#b85450;strokeWidth=2;" edge="1" parent="1" target="6iNIvZ5y2WaDhr4YdJaO-53">
          <mxGeometry width="100" height="100" relative="1" as="geometry">
            <mxPoint x="-180" y="460" as="sourcePoint" />
            <mxPoint x="-310" y="286" as="targetPoint" />
            <Array as="points">
              <mxPoint x="-180" y="465" />
              <mxPoint x="-270" y="465" />
              <mxPoint x="-270" y="400" />
              <mxPoint x="-610" y="400" />
              <mxPoint x="-610" y="707" />
            </Array>
          </mxGeometry>
        </mxCell>
        <mxCell id="6iNIvZ5y2WaDhr4YdJaO-155" value="" style="edgeStyle=orthogonalEdgeStyle;fontSize=12;html=1;endArrow=ERzeroToMany;endFill=1;rounded=0;fillColor=#f8cecc;strokeColor=#b85450;strokeWidth=2;" edge="1" parent="1" source="6iNIvZ5y2WaDhr4YdJaO-57" target="6iNIvZ5y2WaDhr4YdJaO-84">
          <mxGeometry width="100" height="100" relative="1" as="geometry">
            <mxPoint x="-80" y="601.1267605633802" as="sourcePoint" />
            <mxPoint x="90" y="796.9999999999998" as="targetPoint" />
            <Array as="points">
              <mxPoint x="-80" y="759" />
              <mxPoint x="-80" y="760" />
            </Array>
          </mxGeometry>
        </mxCell>
        <mxCell id="6iNIvZ5y2WaDhr4YdJaO-156" value="" style="edgeStyle=orthogonalEdgeStyle;fontSize=12;html=1;endArrow=ERzeroToMany;endFill=1;rounded=0;entryX=0;entryY=0.5;entryDx=0;entryDy=0;fillColor=#f8cecc;strokeColor=#b85450;strokeWidth=2;" edge="1" parent="1" source="6iNIvZ5y2WaDhr4YdJaO-59" target="6iNIvZ5y2WaDhr4YdJaO-25">
          <mxGeometry width="100" height="100" relative="1" as="geometry">
            <mxPoint x="-200" y="790.0026315789473" as="sourcePoint" />
            <mxPoint x="80" y="790.0026315789473" as="targetPoint" />
            <Array as="points">
              <mxPoint x="-10" y="785" />
              <mxPoint x="-10" y="521" />
            </Array>
          </mxGeometry>
        </mxCell>
        <mxCell id="6iNIvZ5y2WaDhr4YdJaO-157" value="" style="edgeStyle=orthogonalEdgeStyle;fontSize=12;html=1;endArrow=ERzeroToMany;endFill=1;rounded=0;fillColor=#f8cecc;strokeColor=#B85450;strokeWidth=2;" edge="1" parent="1" source="6iNIvZ5y2WaDhr4YdJaO-61" target="6iNIvZ5y2WaDhr4YdJaO-128">
          <mxGeometry width="100" height="100" relative="1" as="geometry">
            <mxPoint x="-370" y="820" as="sourcePoint" />
            <mxPoint x="90" y="531" as="targetPoint" />
            <Array as="points">
              <mxPoint x="-650" y="811" />
              <mxPoint x="-650" y="248" />
            </Array>
          </mxGeometry>
        </mxCell>
        <mxCell id="6iNIvZ5y2WaDhr4YdJaO-158" value="" style="edgeStyle=orthogonalEdgeStyle;fontSize=12;html=1;endArrow=ERzeroToMany;endFill=1;rounded=0;exitX=1;exitY=0.5;exitDx=0;exitDy=0;fillColor=#f8cecc;strokeColor=#b85450;strokeWidth=2;" edge="1" parent="1" source="6iNIvZ5y2WaDhr4YdJaO-63" target="6iNIvZ5y2WaDhr4YdJaO-3">
          <mxGeometry width="100" height="100" relative="1" as="geometry">
            <mxPoint x="-190" y="795.0526315789473" as="sourcePoint" />
            <mxPoint x="90" y="531" as="targetPoint" />
            <Array as="points">
              <mxPoint x="40" y="837" />
              <mxPoint x="40" y="350" />
            </Array>
          </mxGeometry>
        </mxCell>
      </root>
    </mxGraphModel>
  </diagram>
</mxfile>
